<?xml version="1.0" encoding="utf-8"?>
<!-- Generated by IcoMoon.io -->
<!DOCTYPE svg PUBLIC "-//W3C//DTD SVG 1.1//EN" "http://www.w3.org/Graphics/SVG/1.1/DTD/svg11.dtd">

<svg version="1.1" xmlns="http://www.w3.org/2000/svg" xmlns:xlink="http://www.w3.org/1999/xlink" width="176" height="48" viewBox="0 0 176 48">
<defs>
<g id="icon-github">
	<path class="path1" d="M31.632 27.144c-1.723 0-3.12 1.934-3.12 4.318 0 2.386 1.397 4.32 3.12 4.32s3.12-1.934 3.12-4.32c-0.002-2.386-1.399-4.318-3.12-4.318zM42.494 15.902c0.355-0.876 0.372-5.856-1.522-10.622 0 0-4.349 0.475-10.925 4.99-1.38-0.382-3.715-0.571-6.048-0.571-2.335 0-4.668 0.192-6.050 0.571-6.574-4.514-10.92-4.99-10.92-4.99-1.894 4.766-1.879 9.746-1.522 10.622-2.227 2.419-3.588 5.323-3.588 9.29 0 17.246 14.309 17.522 17.921 17.522 0.818 0 2.446 0.002 4.162 0.005 1.716-0.002 3.343-0.005 4.157-0.005 3.614 0 17.921-0.276 17.921-17.522 0-3.967-1.358-6.871-3.586-9.29zM24.067 40.596h-0.132c-9.053 0-16.104-1.080-16.104-9.878 0-2.107 0.746-4.063 2.51-5.686 2.95-2.705 7.934-1.272 13.594-1.272 0.022 0 0.046 0 0.067-0.002 0.024 0 0.046 0.002 0.065 0.002 5.659 0 10.646-1.433 13.594 1.272 1.764 1.622 2.508 3.578 2.508 5.686 0 8.798-7.046 9.878-16.102 9.878zM16.37 27.144c-1.723 0-3.12 1.934-3.12 4.318 0 2.386 1.397 4.32 3.12 4.32s3.12-1.934 3.12-4.32c0-2.386-1.397-4.318-3.12-4.318z"></path>
</g>
<g id="icon-twitter">
	<path class="path1" d="M46.080 10.303c-1.627 0.722-3.372 1.207-5.206 1.428 1.872-1.121 3.31-2.897 3.984-5.011-1.75 1.037-3.689 1.793-5.75 2.198-1.654-1.762-4.008-2.861-6.614-2.861-5.004 0-9.060 4.056-9.060 9.058 0 0.71 0.079 1.402 0.235 2.064-7.529-0.377-14.206-3.984-18.672-9.466-0.782 1.337-1.231 2.894-1.231 4.555 0 3.144 1.601 5.916 4.032 7.541-1.486-0.048-2.882-0.454-4.104-1.133 0 0.038 0 0.074 0 0.113 0 4.39 3.125 8.050 7.267 8.885-0.758 0.206-1.56 0.317-2.388 0.317-0.583 0-1.15-0.055-1.704-0.161 1.152 3.6 4.5 6.218 8.462 6.29-3.101 2.431-7.006 3.878-11.251 3.878-0.732 0-1.452-0.043-2.16-0.127 4.008 2.57 8.77 4.070 13.889 4.070 16.663 0 25.776-13.805 25.776-25.778 0-0.391-0.007-0.782-0.026-1.171 1.771-1.277 3.305-2.873 4.522-4.69z"></path>
</g>
<g id="icon-linkedin">
	<path class="path1" d="M12.182 7.32c0 2.551-1.884 4.618-4.982 4.618-2.916 0-4.8-2.066-4.8-4.618 0-2.611 1.946-4.618 4.922-4.618s4.8 2.006 4.86 4.618zM2.645 45.298v-29.712h9.235v29.712h-9.235zM17.407 25.063c0-3.706-0.122-6.804-0.245-9.478h8.021l0.427 4.133h0.182c1.214-1.946 4.193-4.8 9.175-4.8 6.074 0 10.632 4.070 10.632 12.821v17.561h-9.235v-16.466c0-3.828-1.339-6.442-4.68-6.442-2.551 0-4.068 1.762-4.738 3.463-0.245 0.607-0.305 1.457-0.305 2.309v17.136h-9.235v-20.237z"></path>
</g>
</defs>

<g fill="#000000">
	<use xlink:href="#icon-github" transform="translate(0 0)"></use>
	<use xlink:href="#icon-twitter" transform="translate(64 0)"></use>
	<use xlink:href="#icon-linkedin" transform="translate(128 0)"></use>
</g>

</svg>
